HIERARCHY
ROOT Hips
{
  OFFSET 76.1166 86.0381 -109.44
  CHANNELS 6 Xposition Yposition Zposition Zrotation Xrotation Yrotation
  JOINT RightUpLeg
  {
    OFFSET -8.9458 -8.66707 0.101652
    CHANNELS 3 Zrotation Xrotation Yrotation
    JOINT RightLeg
    {
      OFFSET 0 -44.4227 1.3727
      CHANNELS 3 Zrotation Xrotation Yrotation
      JOINT RightFoot
      {
        OFFSET 0.253549 -42.0924 -1.46059
        CHANNELS 3 Zrotation Xrotation Yrotation
        JOINT RightToes
        {
          OFFSET 0.04 -4.41509 8.4991
          CHANNELS 3 Zrotation Xrotation Yrotation
          End Site
          {
            OFFSET -0.08 -0.137448 9.77979
          }
        }
      }
    }
  }
  JOINT Spine
  {
    OFFSET 0 11.8905 0
    CHANNELS 3 Zrotation Xrotation Yrotation
    JOINT Spine1
    {
      OFFSET 0 25.6574 0.127663
      CHANNELS 3 Zrotation Xrotation Yrotation
      JOINT LeftShoulder1
      {
        OFFSET 8.99 -0.362252 -0.22
        CHANNELS 3 Zrotation Xrotation Yrotation
        JOINT LeftArm
        {
          OFFSET 10.2827 -0.00338 0.322123
          CHANNELS 3 Zrotation Xrotation Yrotation
          JOINT LeftForeArm
          {
            OFFSET 32.7669 0.099144 -1.42434
            CHANNELS 3 Zrotation Xrotation Yrotation
            JOINT LeftHand
            {
              OFFSET 27.5643 0.085362 1.02216
              CHANNELS 3 Zrotation Xrotation Yrotation
              End Site
              {
                OFFSET 16.7443 -0.6 1.50291
              }
            }
          }
        }
      }
      JOINT RightShoulder
      {
        OFFSET -8.99 -0.362252 -0.22
        CHANNELS 3 Zrotation Xrotation Yrotation
        JOINT RightArm
        {
          OFFSET -10.2827 -0.00338 0.322123
          CHANNELS 3 Zrotation Xrotation Yrotation
          JOINT RightForeArm
          {
            OFFSET -32.8971 0.099144 -1.42434
            CHANNELS 3 Zrotation Xrotation Yrotation
            JOINT RightHand
            {
              OFFSET -27.4921 0.085362 1.02216
              CHANNELS 3 Zrotation Xrotation Yrotation
              End Site
              {
                OFFSET -16.6312 -0.6 1.50291
              }
            }
          }
        }
      }
      JOINT HEad
      {
        OFFSET 0 8.73416 0.011341
        CHANNELS 3 Zrotation Xrotation Yrotation
        End Site
        {
          OFFSET -0.29 12.7742 2.51395
        }
      }
    }
  }
  JOINT LeftUpLeg
  {
    OFFSET 8.9458 -8.66707 0.101652
    CHANNELS 3 Zrotation Xrotation Yrotation
    JOINT LeftLeg
    {
      OFFSET 0 -44.4227 1.3727
      CHANNELS 3 Zrotation Xrotation Yrotation
      JOINT LeftFoot
      {
        OFFSET -0.253549 -42.0924 -1.46059
        CHANNELS 3 Zrotation Xrotation Yrotation
        JOINT LeftToes
        {
          OFFSET -0.04 -4.41509 8.4991
          CHANNELS 3 Zrotation Xrotation Yrotation
          End Site
          {
            OFFSET 0.08 -0.047448 9.77979
          }
        }
      }
    }
  }
}
MOTION
Frames:	20
Frame Time:	0.0166667
45.8493 75.4914 -120.932 2.57741 -3.87222 41.8121 -15.8215 -48.0769 10.9245 -9.39625 53.286 20.4069 23.5118 23.9641 -6.51416 -8.98976 -67.6404 12.4001 -1.99133 11.2076 -1.45089 -11.1002 20.975 -1.05356 3.18055e-015 -3.18055e-015 -3.18055e-015 -60.9081 -15.527 -46.0327 -13.406 43.7131 -113.061 6.54677 9.62745 -1.04006 23.8045 -3.05102 -14.1799 47.4412 -12.2709 10.4298 0.181221 37.03 105.486 -32.1384 2.1518 22.8484 8.39256 -6.46033 5.0859 30.3493 2.60791 -12.9286 -27.8731 44.7223 39.9821 3.17847 15.1355 -0.736087 59.2132 -48.4435 53.3863 
47.0142 75.7314 -120.28 2.12041 -4.02994 37.8091 -13.5878 -48.2923 10.9871 -11.0455 51.8044 23.6355 24.4377 23.2615 -6.63052 -6.47393 -67.8113 15.5955 -2.04101 10.5866 -2.27967 -10.378 19.8417 -2.82293 -1.76556e-031 3.18055e-015 3.18055e-015 -63.6251 -22.0863 -49.8028 -15.2886 42.9179 -106.987 6.54677 9.62745 -1.04006 22.822 -2.47304 -12.3204 49.673 -11.4777 14.4549 -3.06151 36.889 112.448 -30.8979 3.5318 19.126 7.69296 -5.01879 10.1857 28.2268 5.30559 -14.3631 -27.2626 44.2738 42.4751 4.4823 15.3991 -1.0065 57.9194 -47.4562 53.0681 
48.0718 75.9193 -119.539 1.6464 -4.16848 34.808 -11.5678 -48.1416 11.474 -12.3022 50.6534 25.6433 24.9732 23.2319 -6.77422 -4.49831 -69.1339 18.3194 -1.93024 10.0372 -3.24708 -9.67037 18.8198 -4.81337 1.76556e-031 -1.59028e-015 6.36111e-015 -65.0135 -26.3184 -54.838 -15.3264 39.5604 -99.0362 6.54677 9.62745 -1.04006 22.0975 -2.02443 -10.7618 52.2605 -10.0262 18.4735 -5.94947 36.0654 118.55 -29.5224 4.73305 15.7597 6.76114 -3.47925 14.947 26.3147 7.15872 -15.58 -26.1578 44.5544 43.6194 5.11542 16.6831 -1.1985 57.9788 -47.3513 53.2557 
48.9729 76.1115 -118.768 1.16708 -4.23553 33.0059 -9.95514 -47.6667 12.3724 -13.0274 49.8192 26.1227 24.9828 23.9854 -6.93981 -3.37926 -71.5596 20.1013 -1.69582 9.58245 -4.31689 -9.00493 17.9557 -6.98137 6.36111e-015 -1.59028e-015 -3.18055e-015 -56.5691 -23.5801 -58.5562 -11.1856 26.3802 -90.1678 6.54677 9.62745 -1.04006 21.6548 -1.72076 -9.63979 54.9299 -8.13707 22.2197 -8.45184 34.7166 123.757 -28.1252 5.74438 12.759 5.61888 -2.1424 19.0259 24.8702 8.02891 -16.5099 -24.7141 45.5322 43.3272 5.06312 19.1439 -1.311 59.6262 -48.3106 53.9942 
49.7189 76.3637 -118.009 0.713983 -4.18976 32.4466 -8.90803 -46.9141 13.566 -13.1745 49.2684 25.0209 24.4428 25.3798 -7.08025 -3.64423 -74.6855 20.2757 -1.39286 9.22297 -5.44018 -8.38235 17.2751 -9.26328 -7.95139e-016 9.54166e-015 3.18055e-015 -39.2303 -16.5834 -61.5378 -5.71608 6.68459 -76.4591 6.54677 9.62745 -1.04006 21.424 -1.54715 -8.97368 57.4582 -6.16134 25.5252 -10.5518 33.0406 128.1 -26.8012 6.57955 10.093 4.32298 -1.24784 22.1738 24.037 7.89643 -17.1196 -23.089 47.054 41.6538 4.29358 22.6584 -1.28509 62.8059 -50.3762 55.1427 
50.3575 76.7066 -117.288 0.319042 -4.01233 33.0004 -8.50252 -45.9436 14.8848 -12.7919 48.9561 22.5856 23.4468 27.0344 -7.1193 -6.33154 -77.85 17.7115 -1.06781 8.95016 -6.55099 -7.78655 16.7852 -11.5476 0 3.18055e-015 -0 -22.2064 -11.2302 -65.2285 -0.475368 -8.50076 -58.1074 6.54677 9.62745 -1.04006 21.29 -1.47432 -8.70059 59.6991 -4.45655 28.3548 -12.2417 31.2613 131.624 -25.6257 7.25899 7.73419 2.95507 -0.923455 24.2531 23.7895 6.83336 -17.3503 -21.4097 48.9463 38.7868 2.75325 26.7857 -1.00417 67.0459 -53.3776 56.3664 
50.9632 77.1398 -116.632 0.00266651 -3.70853 34.3807 -8.71104 -44.8243 16.1493 -12.0097 48.8092 19.3237 22.1846 28.4915 -7.00529 -12.8294 -80.3596 11.0009 -0.747185 8.75794 -7.56252 -7.20502 16.4802 -13.658 1.98785e-015 4.77083e-015 3.18055e-015 -9.92326 -8.71844 -68.5797 3.42461 -14.936 -40.7504 6.54677 9.62745 -1.04006 21.1507 -1.471 -8.72438 61.5611 -3.28969 30.7635 -13.5329 29.5892 134.379 -24.6541 7.80005 5.68537 1.62507 -1.16828 25.2294 23.9544 4.98508 -17.1158 -19.7817 51.0678 35.0324 0.456308 30.8506 -0.3561 71.4306 -56.9091 57.1811 
51.6098 77.6424 -116.075 -0.225127 -3.30349 36.2068 -9.42705 -43.6163 17.1911 -11.0197 48.7011 15.8782 20.8973 29.4311 -6.75764 -23.0395 -81.7224 0.301591 -0.444501 8.64526 -8.37387 -6.64694 16.3475 -15.3725 1.59028e-015 -1.59028e-015 -1.59028e-015 -3.09086 -7.7168 -70.9534 4.80486 -15.4976 -29.8863 6.54677 9.62745 -1.04006 20.9574 -1.51053 -8.94872 62.9813 -2.80928 32.8183 -14.457 28.1845 136.423 -23.9269 8.21335 3.98703 0.475513 -1.86605 25.1514 24.3023 2.55773 -16.3671 -18.3195 53.2912 30.8249 -2.3598 34.1416 0.641659 74.8277 -60.4125 57.0791 
52.3438 78.1939 -115.654 -0.359383 -2.83209 38.1041 -10.5189 -42.3564 17.8666 -10.0388 48.461 12.8582 19.8015 29.7786 -6.45305 -33.2653 -81.8734 -10.5849 -0.174783 8.61118 -8.89051 -6.14757 16.3719 -16.4799 -7.95139e-016 3.18055e-015 -0 -0.639551 -6.77438 -72.3883 4.82426 -15.0916 -26.6636 6.54677 9.62745 -1.04006 20.7255 -1.57355 -9.29042 63.918 -3.07287 34.5342 -15.0564 27.1445 137.824 -23.4795 8.50263 2.70788 -0.33132 -2.83301 24.122 24.6532 -0.212104 -15.1572 -17.1495 55.454 26.7212 -5.15444 36.1774 1.74976 76.4445 -63.3652 55.8152 
53.171 78.7877 -115.39 -0.400229 -2.32603 39.803 -11.8739 -41.0579 18.0764 -9.24663 47.9245 10.6842 19.0197 29.6536 -6.17065 -39.7025 -81.1615 -17.7549 0.0341431 8.64833 -9.05053 -5.7563 16.5363 -16.8489 7.95139e-016 -3.18055e-015 -0 -2.00131 -5.31614 -72.8937 4.47745 -15.4823 -30.3197 6.54677 9.62745 -1.04006 20.5176 -1.64847 -9.68312 64.3587 -4.08849 35.8522 -15.376 26.515 138.658 -23.3486 8.66712 1.9206 -0.649622 -3.88605 22.2636 24.9322 -3.10875 -13.6397 -16.3387 57.3278 23.2869 -7.26744 36.9015 2.6091 76.4323 -65.4856 53.7741 
54.0609 79.4319 -115.274 -0.358819 -1.80214 41.1933 -13.4133 -39.7202 17.7861 -8.72389 46.9881 9.49891 18.5644 29.2457 -5.9534 -42.1664 -79.9731 -20.9635 0.140724 8.7387 -8.84211 -5.51592 16.8148 -16.4681 -0 -3.18055e-015 -0 -7.44743 -3.56174 -72.1458 3.12966 -15.0046 -40.1331 6.54677 9.62745 -1.04006 20.4104 -1.73152 -10.0843 64.332 -5.83529 36.6631 -15.4616 26.3093 139.005 -23.5599 8.70636 1.66537 -0.399901 -4.90169 19.6841 25.1496 -5.98706 -12.0138 -15.7842 58.6376 20.8707 -8.28899 36.6536 2.99325 75.9273 -66.8299 51.9895 
54.9654 80.1382 -115.269 -0.263079 -1.25709 42.3139 -15.0821 -38.3381 17.0425 -8.43204 45.6326 9.16118 18.3632 28.718 -5.80348 -42.1829 -78.5199 -21.7199 0.101395 8.85441 -8.30339 -5.44526 17.1668 -15.438 2.38542e-015 6.36111e-015 -0 -17.2594 -2.3679 -69.6045 0.117523 -10.3907 -54.4248 6.54677 9.62745 -1.04006 20.4639 -1.82758 -10.4896 63.9068 -8.25956 36.8595 -15.3631 26.5236 138.936 -24.1015 8.62618 1.91411 0.388888 -5.83174 16.4555 25.3427 -8.79182 -10.4727 -15.1835 59.1157 19.4387 -8.23494 35.9376 2.92233 76.2863 -67.6704 51.5533 
55.8377 80.9063 -115.329 -0.159403 -0.672978 43.2967 -16.8296 -36.9114 15.9775 -8.25022 43.9183 9.31925 18.2928 28.173 -5.6947 -41.0887 -76.8869 -21.372 -0.106203 8.9649 -7.50824 -5.53291 17.5386 -13.9256 -7.95139e-016 3.18055e-015 3.18055e-015 -30.2855 -2.79484 -65.1981 -3.76656 -0.251783 -69.6363 6.54677 9.62745 -1.04006 20.7037 -1.94979 -10.939 63.1767 -11.2628 36.3875 -15.1358 27.1453 138.499 -24.9069 8.44414 2.55742 1.57471 -6.67018 12.6175 25.5283 -11.5355 -9.17699 -14.1644 58.5589 18.6131 -7.42404 35.1726 2.56347 78.1469 -68.237 52.879 
56.6495 81.7074 -115.424 -0.108086 -0.0352116 44.2941 -18.5915 -35.4565 14.787 -8.05126 41.9714 9.54314 18.212 27.6546 -5.58769 -39.6866 -75.1183 -20.7403 -0.455067 9.04734 -6.54671 -5.74291 17.8748 -12.1094 -3.18055e-015 -3.18055e-015 3.18055e-015 -43.6888 -5.12609 -59.8449 -7.59825 13.2602 -82.4994 6.54677 9.62745 -1.04006 21.1206 -2.11587 -11.5004 62.229 -14.6953 35.273 -14.8351 28.1523 137.703 -25.869 8.19117 3.42855 2.94864 -7.3979 8.20827 25.6915 -14.2431 -8.24172 -12.5086 56.8662 17.8604 -6.30896 34.546 2.11104 80.9195 -68.5853 55.2901 
57.4046 82.4737 -115.556 -0.170979 0.642511 45.4163 -20.2846 -34.0144 13.6809 -7.76948 39.9757 9.47116 17.999 27.1483 -5.44247 -38.3511 -73.2638 -20.2031 -0.848949 9.0925 -5.50659 -6.02511 18.1327 -10.1422 3.18055e-015 -1.59028e-015 -0 -54.8113 -8.39487 -54.6954 -11.1671 26.8382 -91.867 6.54677 9.62745 -1.04006 21.6793 -2.33902 -12.2256 61.1141 -18.3479 33.6091 -14.5027 29.4984 136.509 -26.8822 7.90359 4.36307 4.31415 -7.95102 3.30948 25.806 -16.8933 -7.73543 -10.2991 54.0693 16.6714 -5.42454 33.9918 1.75913 82.9648 -68.7269 57.151 
58.1481 83.1075 -115.749 -0.388886 1.30363 46.6925 -21.8172 -32.6416 12.8208 -7.42361 38.1508 8.91651 17.5776 26.5832 -5.22694 -37.1764 -71.3919 -19.8349 -1.13938 9.09966 -4.45754 -6.32694 18.2899 -8.14292 0 0 -6.36111e-015 -61.8062 -10.5451 -50.3212 -14.0916 37.2227 -98.4212 6.54677 9.62745 -1.04006 22.3259 -2.61577 -13.1005 59.8333 -21.9373 31.517 -14.1457 31.0908 134.829 -27.8875 7.605 5.27065 5.5558 -8.23458 -1.91298 25.8677 -19.3887 -7.68825 -7.87856 50.372 14.6742 -5.33471 33.274 1.69592 82.5191 -68.74 56.7067 
58.9549 83.5165 -116.033 -0.754003 1.86023 48.0635 -23.1116 -31.3754 12.2775 -7.09048 36.6946 7.89303 16.9237 25.8665 -4.92461 -36.1241 -69.5845 -19.557 -1.19669 9.06826 -3.44459 -6.60666 18.3467 -6.21083 -1.59028e-015 -4.77083e-015 -3.18055e-015 -62.4465 -8.01496 -47.0222 -14.7226 40.0005 -104.493 6.54677 9.62745 -1.04006 22.9935 -2.9169 -14.0189 58.366 -25.1052 29.1121 -13.7149 32.7826 132.539 -28.8956 7.28573 6.18883 6.65828 -8.1697 -7.19633 25.9115 -21.5721 -8.08683 -5.64841 46.1648 11.7365 -6.4091 32.1589 2.02396 78.8029 -68.6118 53.1792 
59.8938 83.6578 -116.413 -1.19747 2.22785 49.4102 -24.1234 -30.2009 12.0326 -6.85304 35.7001 6.55765 16.0545 24.9553 -4.5422 -35.1468 -67.9209 -19.2786 -0.995823 9.00037 -2.50051 -6.84607 18.3256 -4.43995 8.82781e-032 -1.59028e-015 3.18055e-015 -62.6149 -5.21805 -44.4862 -14.3503 41.7386 -109.792 6.54677 9.62745 -1.04006 23.6099 -3.18925 -14.8033 56.735 -27.4676 26.504 -13.0876 34.3994 129.512 -29.9754 6.89339 7.28738 7.67066 -7.73738 -12.2103 25.9875 -23.2832 -8.84101 -3.86038 41.9633 8.04659 -8.55403 30.6191 2.66424 72.7195 -68.1575 47.4658 
60.9883 83.5575 -116.869 -1.60965 2.35871 50.6004 -24.8494 -29.0574 12.0203 -6.75752 35.1217 5.11697 15.0118 23.9097 -4.10917 -34.2421 -66.4549 -18.9714 -0.639337 8.91357 -1.66718 -7.05272 18.2693 -2.91762 1.59028e-015 -1.59028e-015 -0 -62.6155 -2.50924 -42.5857 -13.4142 42.6403 -114.348 6.54677 9.62745 -1.04006 24.1134 -3.37308 -15.2701 55.067 -28.7155 23.8318 -12.0777 35.7874 125.67 -31.2052 6.34279 8.81105 8.64522 -6.99178 -16.6242 26.1101 -24.4238 -9.75494 -2.54062 38.2823 4.02981 -11.2655 28.9224 3.41521 66.5861 -67.3692 41.7943 
62.2075 83.2924 -117.366 -1.88117 2.24855 51.5257 -25.3188 -27.8905 12.1779 -6.79473 34.8332 3.75236 13.8511 22.8773 -3.6664 -33.4357 -65.1964 -18.663 -0.293156 8.84351 -0.998152 -7.24837 18.2307 -1.70764 -4.77083e-015 4.77083e-015 9.54166e-015 -62.6526 -0.201793 -41.1397 -12.2975 42.9776 -118.129 6.54677 9.62745 -1.04006 24.4729 -3.42845 -15.3079 53.5872 -28.7158 21.2821 -10.491 36.8419 121.04 -32.6025 5.54518 10.9752 9.59367 -6.03799 -20.182 26.2329 -24.9824 -10.5537 -1.55822 35.516 0.116029 -13.9927 27.4837 4.12311 62.5911 -66.6775 38.136 
